<svg xmlns="http://www.w3.org/2000/svg" viewBox="0 0 79.62 111.05"><defs><style>.cls-1,.cls-4{fill:#263238;}.cls-2{fill:#f0f0f0;}.cls-3{fill:#e0e0e0;}.cls-4{opacity:0.2;}</style></defs><title>Asset 1</title><g id="Layer_2" data-name="Layer 2"><g id="Folder"><path class="cls-1" d="M74.86,76.67h0a4.4,4.4,0,0,1,3.36,3.88l.65,27.09c0,2.06-1.8,3.58-4.13,3.39L6.4,105.68a4.54,4.54,0,0,1-4.32-4.05L0,15.66c0-2.05,1.8-3.57,4.14-3.39l57.4,4.5a4.53,4.53,0,0,1,4.32,4.05L67,67.6C67.09,71.65,70.35,75.41,74.86,76.67Z"/><polygon class="cls-2" points="3.11 13.86 5.27 103.67 75.54 107.1 73.38 17.28 3.11 13.86"/><polygon class="cls-3" points="3.11 13.86 5.27 103.67 75.51 105.69 73.38 17.28 3.11 13.86"/><polygon class="cls-2" points="3.11 13.86 5.27 103.67 77.72 105.02 75.55 15.2 3.11 13.86"/><polygon class="cls-3" points="3.11 13.86 5.27 103.67 77.67 103.15 75.55 15.2 3.11 13.86"/><polygon class="cls-2" points="3.11 13.86 5.27 103.67 79.62 102.42 77.46 12.6 3.11 13.86"/><polygon class="cls-3" points="3.11 13.86 5.27 103.67 78.16 100.07 76.01 10.83 3.11 13.86"/><polygon class="cls-2" points="3.11 13.86 5.27 103.67 77.58 99.27 75.42 9.45 3.11 13.86"/><polygon class="cls-3" points="3.11 13.86 5.27 103.67 76.45 97.71 74.29 7.89 3.11 13.86"/><path class="cls-1" d="M70,57.25h0a3.16,3.16,0,0,1,3.42,3L74,87.32c0,2.06-1.84,4.1-4.22,4.55L6.47,104.11c-2.38.46-4.35-.83-4.4-2.89L0,15.25c0-2.05,1.84-4.09,4.21-4.55L56.44.61c2.37-.46,4.34.84,4.39,2.89L62,50.28C62.06,54.33,65.37,57.22,70,57.25Z"/><path class="cls-4" d="M72.23,56.73h0a3.16,3.16,0,0,1,3.42,3L76.3,86.8c0,2.06-1.83,4.09-4.21,4.55L8.73,103.59c-2.37.46-4.34-.84-4.39-2.89l-2.07-86c0-2.05,1.83-4.09,4.21-4.55L58.71.09C61.08-.37,63.05.93,63.1,3l1.13,46.78C64.32,53.81,67.64,56.7,72.23,56.73Z"/></g></g></svg>