<?xml version="1.0" encoding="utf-8"?>
<!-- Generator: Adobe Illustrator 23.0.3, SVG Export Plug-In . SVG Version: 6.00 Build 0)  -->
<svg version="1.1" id="Layer_1" xmlns="http://www.w3.org/2000/svg" xmlns:xlink="http://www.w3.org/1999/xlink" x="0px" y="0px"
	 viewBox="0 0 430 430" style="enable-background:new 0 0 430 430;" xml:space="preserve">
<style type="text/css">
	.st0{fill:#D4E1F4;}
	.st1{fill:#00A99D;}
</style>
<path class="st0" d="M228.3,126.3c6.9,13.2,20.6,21.5,35.5,21.5H410c3,0,6,0.4,9,1c-4.2-18.2-20.4-31-39-31H233.7
	c-3.6,0-7.1-0.5-10.6-1.4L228.3,126.3z"/>
<path class="st0" d="M40,384.7V105.1c0-22.1,17.9-40,40-40h92.1c3.6,0,7.1,0.5,10.6,1.4l-5.2-9.9c-6.9-13.2-20.6-21.5-35.5-21.5H50
	c-22.1,0-40,17.9-40,40v279.6c0,18.6,12.9,34.8,31,39C40.4,390.7,40,387.7,40,384.7z"/>
<path class="st1" d="M380,107.8H233.7c-11.2,0-21.5-6.2-26.6-16.2l-20.6-39.7c-8.6-16.6-25.7-27-44.4-26.9H50C22.4,25,0,47.4,0,75
	v279.6c0,27.6,22.4,50,50,50h330c27.6,0,50-22.4,50-50V157.8C430,130.2,407.6,107.8,380,107.8z M50,45.1h92.1
	c11.2,0,21.5,6.2,26.6,16.2l20.6,39.7c1.3,2.4,2.7,4.7,4.3,6.9H20V75.2C20,58.6,33.4,45.2,50,45.1z M410,354.7c0,16.6-13.5,30-30,30
	H50c-16.5,0-30-13.4-30-30V127.8h203.9c1,0,2-0.1,2.9-0.4c2.3,0.3,4.7,0.5,7,0.5H380c16.5,0,30,13.4,30,30V354.7z"/>
</svg>
