<svg xmlns="http://www.w3.org/2000/svg" viewBox="0 0 572.95 574.15"><defs><style>.cls-1{fill:red;}.cls-2{fill:#753500;}.cls-3{fill:#fff;}</style></defs><title>Asset 1</title><g id="Layer_2" data-name="Layer 2"><g id="Object"><path class="cls-1" d="M18.93,19.26A20.72,20.72,0,0,0,0,39.92V514.78a20.72,20.72,0,0,0,17.12,20.44l216.74,38.61a20.75,20.75,0,0,0,24.39-20.42V20.75A20.73,20.73,0,0,0,235.67.08Zm182.5,296.2c-8.92,0-16.16-12.73-16.16-28.39s7.24-28.37,16.16-28.37,16.17,12.68,16.17,28.37S210.36,315.46,201.43,315.46Z"/><polygon class="cls-2" points="572.96 275.96 403.55 150.17 403.55 215.43 271.94 215.43 271.94 335.7 403.55 335.7 403.55 400.94 572.96 275.96"/><path class="cls-3" d="M185.27,287.07c0,15.66,7.24,28.39,16.16,28.39s16.17-12.73,16.17-28.39-7.24-28.37-16.17-28.37S185.27,271.38,185.27,287.07Z"/><path class="cls-2" d="M388.8,196.93V34.59a16.17,16.17,0,0,0-16.14-16.18H271.94V50.74h84.54V196.93Z"/><path class="cls-2" d="M271.94,523.41v32.34H372.66a16.18,16.18,0,0,0,16.14-16.18V353.21H356.48v170.2Z"/></g></g></svg>