<svg width="116px" height="125px" viewBox="0 0 116 125" version="1.1" xmlns="http://www.w3.org/2000/svg" xmlns:xlink="http://www.w3.org/1999/xlink">
    <defs>
        <circle id="path-1" cx="50.5" cy="50.5" r="50.5"></circle>
        <filter x="-5.9%" y="-3.0%" width="111.9%" height="111.9%" filterUnits="objectBoundingBox" id="filter-2">
            <feOffset dx="0" dy="3" in="SourceAlpha" result="shadowOffsetOuter1"></feOffset>
            <feGaussianBlur stdDeviation="1.5" in="shadowOffsetOuter1" result="shadowBlurOuter1"></feGaussianBlur>
            <feColorMatrix values="0 0 0 0 0   0 0 0 0 0   0 0 0 0 0  0 0 0 0.159335371 0" type="matrix" in="shadowBlurOuter1"></feColorMatrix>
        </filter>
    </defs>
    <g id="Welcome" stroke="none" stroke-width="1" fill="none" fill-rule="evenodd">
        <g id="Desktop" transform="translate(-927.000000, -1302.000000)">
            <g id="steps" transform="translate(0.000000, 1184.000000)">
                <g id="Group" transform="translate(930.000000, 118.000000)">
                    <circle id="Oval-Copy" fill="#FFF400" cx="89.5" cy="23.5" r="23.5"></circle>
                    <circle id="Oval-Copy-2" fill="#50E3C2" cx="37" cy="88" r="37"></circle>
                    <g id="Oval">
                        <use fill="black" fill-opacity="1" filter="url(#filter-2)" xlink:href="#path-1"></use>
                        <use fill="#00A99D" fill-rule="evenodd" xlink:href="#path-1"></use>
                    </g>
                    <path d="M63.4837645,50.256 C64.6357703,50.6400019 65.6917597,51.1733299 66.6517645,51.856 C67.6117693,52.5386701 68.4330944,53.3279955 69.1157645,54.224 C69.7984346,55.1200045 70.321096,56.0906614 70.6837645,57.136 C71.046433,58.1813386 71.2277645,59.237328 71.2277645,60.304 C71.2277645,62.9493466 70.6731034,65.2213238 69.5637645,67.12 C68.4544256,69.0186762 67.0037735,70.5759939 65.2117645,71.792 C63.4197555,73.0080061 61.3931091,73.8933306 59.1317645,74.448 C56.8704199,75.0026694 54.587776,75.28 52.2837645,75.28 C49.979753,75.28 47.7077757,75.013336 45.4677645,74.48 C43.2277533,73.946664 41.1797738,73.1040058 39.3237645,71.952 C37.4677552,70.7999942 35.8464381,69.3493421 34.4597645,67.6 C33.0730909,65.8506579 32.0811008,63.7600122 31.4837645,61.328 L45.6917645,58 C45.9477658,59.1093389 46.5770928,60.1333286 47.5797645,61.072 C48.5824362,62.0106714 49.8730899,62.48 51.4517645,62.48 C51.8784333,62.48 52.3264288,62.4266672 52.7957645,62.32 C53.2651002,62.2133328 53.6917626,62.0426678 54.0757645,61.808 C54.4597664,61.5733322 54.7797632,61.2640019 55.0357645,60.88 C55.2917658,60.4959981 55.4197645,60.0053363 55.4197645,59.408 C55.4197645,58.0426598 54.8224371,57.1466688 53.6277645,56.72 C52.4330919,56.2933312 50.8331079,56.08 48.8277645,56.08 L44.4757645,56.08 L44.4757645,45.584 L49.3397645,45.584 C50.9611059,45.584 52.2624263,45.3600022 53.2437645,44.912 C54.2251027,44.4639978 54.7157645,43.6000064 54.7157645,42.32 C54.7157645,41.3386618 54.3317683,40.6560019 53.5637645,40.272 C52.7957607,39.8879981 51.9851021,39.696 51.1317645,39.696 C50.0650925,39.696 49.083769,40.0266634 48.1877645,40.688 C47.29176,41.3493366 46.7370989,42.3199936 46.5237645,43.6 L32.3797645,40.592 C33.1477683,38.117321 34.2357575,36.0373418 35.6437645,34.352 C37.0517715,32.6666582 38.6624221,31.3120051 40.4757645,30.288 C42.2891069,29.2639949 44.2304208,28.5280022 46.2997645,28.08 C48.3691082,27.6319978 50.4064211,27.408 52.4117645,27.408 C54.4171079,27.408 56.4864205,27.6533309 58.6197645,28.144 C60.7531085,28.6346691 62.6944224,29.4239946 64.4437645,30.512 C66.1931066,31.6000054 67.6224256,32.9866582 68.7317645,34.672 C69.8411034,36.3573418 70.3957645,38.3946547 70.3957645,40.784 C70.3957645,43.3440128 69.7237712,45.3813258 68.3797645,46.896 C67.0357578,48.4106742 65.4037741,49.4453306 63.4837645,50 L63.4837645,50.256 Z" id="3" fill="#FFFFFF" fill-rule="nonzero"></path>
                </g>
            </g>
        </g>
    </g>
</svg>