<svg width="116px" height="125px" viewBox="0 0 116 125" version="1.1" xmlns="http://www.w3.org/2000/svg" xmlns:xlink="http://www.w3.org/1999/xlink">
    <defs>
        <circle id="path-1" cx="50.5" cy="50.5" r="50.5"></circle>
        <filter x="-5.9%" y="-3.0%" width="111.9%" height="111.9%" filterUnits="objectBoundingBox" id="filter-2">
            <feOffset dx="0" dy="3" in="SourceAlpha" result="shadowOffsetOuter1"></feOffset>
            <feGaussianBlur stdDeviation="1.5" in="shadowOffsetOuter1" result="shadowBlurOuter1"></feGaussianBlur>
            <feColorMatrix values="0 0 0 0 0   0 0 0 0 0   0 0 0 0 0  0 0 0 0.159335371 0" type="matrix" in="shadowBlurOuter1"></feColorMatrix>
        </filter>
    </defs>
    <g id="Welcome" stroke="none" stroke-width="1" fill="none" fill-rule="evenodd">
        <g id="Desktop" transform="translate(-537.000000, -1299.000000)">
            <g id="steps" transform="translate(0.000000, 1184.000000)">
                <g id="Group" transform="translate(540.000000, 115.000000)">
                    <circle id="Oval-Copy" fill="#FFF400" cx="89.5" cy="23.5" r="23.5"></circle>
                    <circle id="Oval-Copy-2" fill="#50E3C2" cx="37" cy="88" r="37"></circle>
                    <g id="Oval">
                        <use fill="black" fill-opacity="1" filter="url(#filter-2)" xlink:href="#path-1"></use>
                        <use fill="#00A99D" fill-rule="evenodd" xlink:href="#path-1"></use>
                    </g>
                    <path d="M51.5157645,47.824 C52.2411015,47.2693306 52.8384288,46.6506701 53.3077645,45.968 C53.7771002,45.2853299 54.0117645,44.581337 54.0117645,43.856 C54.0117645,43.0026624 53.7451005,42.2560032 53.2117645,41.616 C52.6784285,40.9759968 51.8357703,40.656 50.6837645,40.656 C49.446425,40.656 48.4224352,41.1466618 47.6117645,42.128 C46.8010938,43.1093382 46.3530983,44.4319917 46.2677645,46.096 L31.7397645,44.432 C32.0384327,41.4879853 32.806425,38.949344 34.0437645,36.816 C35.281104,34.682656 36.8277552,32.912007 38.6837645,31.504 C40.5397738,30.095993 42.6090864,29.0613366 44.8917645,28.4 C47.1744426,27.7386634 49.5317523,27.408 51.9637645,27.408 C54.1824423,27.408 56.3904202,27.6853306 58.5877645,28.24 C60.7851088,28.7946694 62.7370893,29.6586608 64.4437645,30.832 C66.1504397,32.0053392 67.5370925,33.5306573 68.6037645,35.408 C69.6704365,37.2853427 70.2037645,39.5466534 70.2037645,42.192 C70.2037645,44.0693427 69.9584336,45.7226595 69.4677645,47.152 C68.9770954,48.5813405 68.3157687,49.8506611 67.4837645,50.96 C66.6517603,52.0693389 65.7131031,53.0719955 64.6677645,53.968 C63.6224259,54.8640045 62.5237703,55.7173293 61.3717645,56.528 L54.7157645,61.264 L70.3317645,61.264 L70.3317645,74 L33.5957645,74 L33.5957645,62.16 L51.5157645,47.824 Z" id="2" fill="#FFFFFF" fill-rule="nonzero"></path>
                </g>
            </g>
        </g>
    </g>
</svg>